<?xml version="1.0" encoding="UTF-8"?>
<svg width="159.982479px" height="318.05526px" viewBox="0 0 159.982479 318.05526" version="1.1" xmlns="http://www.w3.org/2000/svg" xmlns:xlink="http://www.w3.org/1999/xlink">
    <title>Group 2</title>
    <g id="Design" stroke="none" stroke-width="1" fill="none" fill-rule="evenodd">
        <g id="Mobile_Home_R1" transform="translate(-200.017521, -4323.944740)">
            <g id="Get-Creative" transform="translate(15.000000, 3918.000000)">
                <g id="Group-2" transform="translate(202.031984, 422.970598)">
                    <g id="Group-36" transform="translate(135.203449, 207.186475) rotate(-1.000000) translate(-135.203449, -207.186475) translate(21.342811, 21.418168)" fill="#E24188">
                        <path d="M227.721275,371.536613 C209.480094,355.171781 160.276095,259.101896 159.68704,164.962507 C159.342069,109.466311 167.644165,47.3798031 120.715026,11.1515786 C92.1344635,-10.9085847 50.1813746,1.83564377 27.2668064,31.2183759 C4.35223824,60.601108 -2.37470573,102.587534 0.700747606,141.693011 C3.77620094,180.798487 15.5247581,218.228648 25.5647301,255.795646 C35.6079566,293.358944 44.0923025,332.505102 40.3724684,371.536613" id="Fill-34"></path>
                    </g>
                    <g id="Group-39" transform="translate(127.982035, 211.535796) rotate(-1.000000) translate(-127.982035, -211.535796) translate(3.635552, 2.138253)" stroke="#000000" stroke-linecap="round" stroke-linejoin="round" stroke-width="29.6084558">
                        <path d="M222.128227,407.110627 C206.336995,388.338201 168.816383,279.459371 181.35995,185.996031 C188.751352,130.900133 205.631831,70.4717028 164.186358,28.0056244 C138.948501,2.14470466 95.6071407,8.94058642 68.8050905,34.8945906 C42.0062647,60.849048 29.4911245,101.56339 27.0866764,140.78086 C24.6822283,179.99833 31.1015473,218.757569 35.814933,257.419205 C40.5250943,296.080389 43.4743835,336.087686 34.3504834,374.289723" id="Stroke-37" transform="translate(124.346482, 209.397543) rotate(-8.000000) translate(-124.346482, -209.397543) "></path>
                    </g>
                    <g id="Group-42" transform="translate(124.095449, 248.671211) rotate(-1.000000) translate(-124.095449, -248.671211) translate(91.302997, 107.737087)" stroke="#000000" stroke-linecap="round" stroke-linejoin="round" stroke-width="29.6084558">
                        <path d="M39.7418194,0.487405231 C-14.5372364,110.692037 58.8203536,231.278249 44.1941614,281.383746" id="Stroke-40" transform="translate(32.799432, 140.935575) rotate(-8.000000) translate(-32.799432, -140.935575) "></path>
                    </g>
                </g>
            </g>
        </g>
    </g>
</svg>