<?xml version="1.0" encoding="UTF-8"?>
<svg width="363.947988px" height="777px" viewBox="0 0 363.947988 777" version="1.1" xmlns="http://www.w3.org/2000/svg" xmlns:xlink="http://www.w3.org/1999/xlink">
    <title>Group 2</title>
    <g id="Design" stroke="none" stroke-width="1" fill="none" fill-rule="evenodd">
        <g id="Home_R1" transform="translate(-1376.052012, -5298.305452)">
            <g id="Get-creative" transform="translate(60.000000, 5298.305452)">
                <g id="Group-2" transform="translate(1353.973910, -72.976074)">
                    <g id="Group-36" transform="translate(300.645853, 461.810808) rotate(-1.000000) translate(-300.645853, -461.810808) translate(47.619348, 47.583247)" fill="#E24188">
                        <path d="M506.053011,828.45512 C465.516594,791.964696 356.173135,577.747348 354.864109,367.834634 C354.097497,244.0888 372.54681,105.64784 268.258651,24.8658734 C204.745572,-24.3240437 111.515429,4.09313223 60.5935896,69.6109683 C9.67175008,135.128804 -5.27718363,228.750452 1.55723454,315.948136 C8.39165271,403.14582 34.4998533,486.607874 56.811155,570.375045 C79.1296888,654.133971 97.9840043,741.422365 89.7176128,828.45512" id="Fill-34"></path>
                    </g>
                    <g id="Group-39" transform="translate(284.514654, 471.470870) rotate(-1.000000) translate(-284.514654, -471.470870) translate(8.103252, 4.752961)" stroke="#000000" stroke-linecap="round" stroke-linejoin="round" stroke-width="66">
                        <path d="M493.591392,907.499866 C458.516616,865.660173 375.244482,622.936378 403.218609,414.531739 C419.702621,291.67886 457.280656,156.926355 365.21674,62.2845769 C309.155226,4.64978726 212.826574,19.8474585 153.234821,77.7440165 C93.6502331,135.641581 65.7942415,226.433803 60.4097494,313.877974 C55.0252572,401.322145 69.2511282,487.735422 79.685845,573.932857 C90.1133965,660.129284 96.6261941,749.328923 76.3094914,834.516024" id="Stroke-37" transform="translate(276.411402, 466.717910) rotate(-8.000000) translate(-276.411402, -466.717910) "></path>
                    </g>
                    <g id="Group-42" transform="translate(275.935689, 554.313117) rotate(-1.000000) translate(-275.935689, -554.313117) translate(203.026837, 240.089112)" stroke="#000000" stroke-linecap="round" stroke-linejoin="round" stroke-width="66">
                        <path d="M88.5238387,1.07405963 C-32.2204246,246.850488 130.683389,515.640436 98.126024,627.37395" id="Stroke-40" transform="translate(72.908852, 314.224005) rotate(-8.000000) translate(-72.908852, -314.224005) "></path>
                    </g>
                </g>
            </g>
        </g>
    </g>
</svg>