<svg xmlns="http://www.w3.org/2000/svg"
viewBox="0 0 899.751 899.356">
<g fill="none" fill-rule="evenodd" stroke="#000" stroke-linecap="round" stroke-linejoin="round"
    stroke-width="52.107">
    <path
        d="M256.831 277.318c-25.21-1.33-50.688.55-79.903-.687M246.796 380.131c-43.11 12.94-89.147 16.273-133.832 9.687M292.731 480.283a682.045 682.045 0 0 1-124.703 13.382M332.62 580.682a573.327 573.327 0 0 1-79.48 15.585M390.289 671.7c-40.188 22.151-83.842 37.93-128.818 46.55M450.106 733.91a904.877 904.877 0 0 0-53.453 64.13M541.47 680.421C399.687 612.29 298.956 314.86 372.91 195.737c29.159-46.968 150.798-116.778 239.635-40.225 19.714 16.985 78.65 79.755 124.89 185.093C851.33 600.056 651.375 674.894 641.38 679.2c-31.382 13.526-68.18 13.976-99.91 1.221" />
</g>
</svg>