<?xml version="1.0" encoding="UTF-8"?>
<svg width="341.248195px" height="777px" viewBox="0 0 341.248195 777" version="1.1" xmlns="http://www.w3.org/2000/svg" xmlns:xlink="http://www.w3.org/1999/xlink">
    <title>Group 3</title>
    <g id="Design" stroke="none" stroke-width="1" fill="none" fill-rule="evenodd">
        <g id="Home_R1" transform="translate(-60.000000, -5298.305452)">
            <g id="Get-creative" transform="translate(60.000000, 5298.305452)">
                <g id="Group-3" transform="translate(-90.976883, -46.023574)">
                    <g id="Group-8" transform="translate(170.738275, 138.551112) rotate(8.000000) translate(-170.738275, -138.551112) translate(37.811483, 17.320021)" stroke="#000000" stroke-linecap="round" stroke-linejoin="round" stroke-width="74.8257357">
                        <path d="M16.9091556,230.187596 C58.9981204,237.614211 102.000773,245.097017 144.896631,241.556966 C187.804355,238.02628 231.364713,221.468582 251.833691,191.499897 C272.789177,160.838186 267.034132,123.058913 255.417245,89.4471594 C223.87722,-1.74192981 56.3875841,2.72527729 0,-5.68434189e-14" id="Stroke-6"></path>
                    </g>
                    <g id="Group-12" transform="translate(170.738275, 138.551112) rotate(8.000000) translate(-170.738275, -138.551112) translate(37.811483, 17.320021)">
                        <path d="M16.9091556,230.187596 C58.9981204,237.614211 102.000773,245.097017 144.896631,241.556966 C187.804355,238.02628 231.364713,221.468582 251.833691,191.499897 C272.789177,160.838186 267.034132,123.058913 255.417245,89.4471594 C223.87722,-1.74192981 56.3875841,2.72527729 0,-3.69482223e-13" id="Fill-9" fill="#FFFFFF"></path>
                        <path d="M16.9091556,230.187596 C58.9981204,237.614211 102.000773,245.097017 144.896631,241.556966 C187.804355,238.02628 231.364713,221.468582 251.833691,191.499897 C272.789177,160.838186 267.034132,123.058913 255.417245,89.4471594 C223.87722,-1.74192981 56.3875841,2.72527729 0,-3.69482223e-13" id="Stroke-11" stroke="#000000" stroke-width="66" stroke-linecap="round" stroke-linejoin="round"></path>
                    </g>
                    <g id="Group-15" transform="translate(191.993767, 350.226402) rotate(8.000000) translate(-191.993767, -350.226402) translate(59.066974, 228.995311)" stroke="#000000" stroke-linecap="round" stroke-linejoin="round" stroke-width="74.8257357">
                        <path d="M16.9091556,230.187596 C58.9981204,237.614211 102.000773,245.097017 144.896631,241.556966 C187.804355,238.02628 231.364713,221.468582 251.833691,191.499897 C272.789177,160.838186 267.034132,123.058913 255.417245,89.4471594 C223.865354,-1.74192981 56.3875841,2.72527729 -3.63797881e-12,5.1159077e-13" id="Stroke-13"></path>
                    </g>
                    <g id="Group-19" transform="translate(191.993767, 350.226402) rotate(8.000000) translate(-191.993767, -350.226402) translate(59.066974, 228.995311)">
                        <path d="M16.9091556,230.187596 C58.9981204,237.614211 102.000773,245.097017 144.896631,241.556966 C187.804355,238.02628 231.364713,221.468582 251.833691,191.499897 C272.789177,160.838186 267.034132,123.058913 255.417245,89.4471594 C223.865354,-1.74192981 56.3875841,2.72527729 -3.63797881e-12,1.70530257e-13" id="Fill-16" fill="#FFFFFF"></path>
                        <path d="M16.9091556,230.187596 C58.9981204,237.614211 102.000773,245.097017 144.896631,241.556966 C187.804355,238.02628 231.364713,221.468582 251.833691,191.499897 C272.789177,160.838186 267.034132,123.058913 255.417245,89.4471594 C223.865354,-1.74192981 56.3875841,2.72527729 -3.63797881e-12,1.70530257e-13" id="Stroke-18" stroke="#000000" stroke-width="66" stroke-linecap="round" stroke-linejoin="round"></path>
                    </g>
                    <g id="Group-22" transform="translate(199.634086, 559.170011) rotate(8.000000) translate(-199.634086, -559.170011) translate(52.843763, 448.516129)" stroke="#000000" stroke-linecap="round" stroke-linejoin="round" stroke-width="74.8257357">
                        <path d="M0,218.157474 C46.8734958,219.126596 93.7469916,220.095719 140.620487,221.064842 C184.730467,221.977511 234.414719,221.403564 265.15589,199.348965 C288.657593,182.478702 294.468064,157.121558 293.476032,133.627388 C291.36206,83.5623183 257.585744,30.3452475 191.828217,10.1159861 C135.105264,-7.32822346 69.8555626,3.14394766 7.85358396,2.86167889" id="Stroke-20"></path>
                    </g>
                    <g id="Group-26" transform="translate(199.634086, 559.170011) rotate(8.000000) translate(-199.634086, -559.170011) translate(52.843763, 448.516129)">
                        <path d="M0,218.157474 C46.8734958,219.126596 93.7469916,220.095719 140.620487,221.064842 C184.730467,221.977511 234.414719,221.403564 265.15589,199.348965 C288.657593,182.478702 294.468064,157.121558 293.476032,133.627388 C291.36206,83.5623183 257.585744,30.3452475 191.828217,10.1159861 C135.105264,-7.32822346 69.8555626,3.14394766 7.85358396,2.86167889" id="Fill-23" fill="#FFFFFF"></path>
                        <path d="M0,218.157474 C46.8734958,219.126596 93.7469916,220.095719 140.620487,221.064842 C184.730467,221.977511 234.414719,221.403564 265.15589,199.348965 C288.657593,182.478702 294.468064,157.121558 293.476032,133.627388 C291.36206,83.5623183 257.585744,30.3452475 191.828217,10.1159861 C135.105264,-7.32822346 69.8555626,3.14394766 7.85358396,2.86167889" id="Stroke-25" stroke="#000000" stroke-width="66" stroke-linecap="round" stroke-linejoin="round"></path>
                    </g>
                    <g id="Group-29" transform="translate(204.049656, 720.828456) rotate(8.000000) translate(-204.049656, -720.828456) translate(25.454763, 655.737937)" stroke="#000000" stroke-linecap="round" stroke-linejoin="round" stroke-width="74.8257357">
                        <path d="M357.189785,130.181037 C352.544443,86.9766487 292.071404,33.2635942 222.725642,16.1893707 C153.37988,-0.89428605 75.2688716,-1.71498077 -3.63797881e-12,1.45459884" id="Stroke-27"></path>
                    </g>
                    <g id="Group-33" transform="translate(194.974518, 785.285518) rotate(8.000000) translate(-194.974518, -785.285518) translate(16.379625, 655.104481)">
                        <path d="M10.5247483,260.362075 C126.201626,248.730766 371.679759,271.436817 356.5184,130.181975 C351.88179,86.977275 291.522418,33.2638338 222.307,16.1894873 C153.091583,-0.89429249 75.1273939,-1.71499312 0,1.45460931" id="Fill-30" fill="#FFFFFF"></path>
                        <path d="M10.5247483,260.362075 C126.201626,248.730766 371.679759,271.436817 356.5184,130.181975 C351.88179,86.977275 291.522418,33.2638338 222.307,16.1894873 C153.091583,-0.89429249 75.1273939,-1.71499312 0,1.45460931" id="Stroke-32" stroke="#000000" stroke-width="66" stroke-linecap="round" stroke-linejoin="round"></path>
                    </g>
                </g>
            </g>
        </g>
    </g>
</svg>