<?xml version="1.0" encoding="UTF-8"?>
<svg width="162.026992px" height="291.052167px" viewBox="0 0 162.026992 291.052167" version="1.1" xmlns="http://www.w3.org/2000/svg" xmlns:xlink="http://www.w3.org/1999/xlink">
    <title>Group 3</title>
    <g id="Design" stroke="none" stroke-width="1" fill="none" fill-rule="evenodd">
        <g id="Mobile_Home_R1" transform="translate(-15.000000, -4350.947833)">
            <g id="Get-Creative" transform="translate(15.000000, 3918.000000)">
                <g id="Group-3" transform="translate(-33.000000, 452.000000)">
                    <g id="Group-8" transform="translate(77.058652, 62.409403) rotate(8.000000) translate(-77.058652, -62.409403) translate(17.066857, 7.799915)" stroke="#000000" stroke-linecap="round" stroke-linejoin="round" stroke-width="33.7049651">
                        <path d="M7.63134781,103.689793 C26.6267097,107.03517 46.0344321,110.405858 65.3939565,108.811214 C84.7588363,107.22079 104.418259,99.7622455 113.656207,86.2626182 C123.113723,72.4508121 120.516387,55.4328444 115.273517,40.2921687 C101.039045,-0.784665834 25.4485367,1.22762235 0,2.27304133e-13" id="Stroke-6"></path>
                    </g>
                    <g id="Group-12" transform="translate(77.058652, 62.409403) rotate(8.000000) translate(-77.058652, -62.409403) translate(17.066857, 7.799915)">
                        <path d="M7.63134781,103.689793 C26.6267097,107.03517 46.0344321,110.405858 65.3939565,108.811214 C84.7588363,107.22079 104.418259,99.7622455 113.656207,86.2626182 C123.113723,72.4508121 120.516387,55.4328444 115.273517,40.2921687 C101.039045,-0.784665834 25.4485367,1.22762235 0,0" id="Fill-9" fill="#FFFFFF"></path>
                        <path d="M7.63134781,103.689793 C26.6267097,107.03517 46.0344321,110.405858 65.3939565,108.811214 C84.7588363,107.22079 104.418259,99.7622455 113.656207,86.2626182 C123.113723,72.4508121 120.516387,55.4328444 115.273517,40.2921687 C101.039045,-0.784665834 25.4485367,1.22762235 0,0" id="Stroke-11" stroke="#000000" stroke-width="29.7294464" stroke-linecap="round" stroke-linejoin="round"></path>
                    </g>
                    <g id="Group-15" transform="translate(86.651564, 157.760184) rotate(8.000000) translate(-86.651564, -157.760184) translate(26.659770, 103.150696)" stroke="#000000" stroke-linecap="round" stroke-linejoin="round" stroke-width="33.7049651">
                        <path d="M7.63134781,103.689793 C26.6267097,107.03517 46.0344321,110.405858 65.3939565,108.811214 C84.7588363,107.22079 104.418259,99.7622455 113.656207,86.2626182 C123.113723,72.4508121 120.516387,55.4328444 115.273517,40.2921687 C101.03369,-0.784665834 25.4485367,1.22762235 3.64466814e-12,2.27304133e-13" id="Stroke-13"></path>
                    </g>
                    <g id="Group-19" transform="translate(86.651564, 157.760184) rotate(8.000000) translate(-86.651564, -157.760184) translate(26.659770, 103.150696)">
                        <path d="M7.63134781,103.689793 C26.6267097,107.03517 46.0344321,110.405858 65.3939565,108.811214 C84.7588363,107.22079 104.418259,99.7622455 113.656207,86.2626182 C123.113723,72.4508121 120.516387,55.4328444 115.273517,40.2921687 C101.03369,-0.784665834 25.4485367,1.22762235 0,-2.27304133e-13" id="Fill-16" fill="#FFFFFF"></path>
                        <path d="M7.63134781,103.689793 C26.6267097,107.03517 46.0344321,110.405858 65.3939565,108.811214 C84.7588363,107.22079 104.418259,99.7622455 113.656207,86.2626182 C123.113723,72.4508121 120.516387,55.4328444 115.273517,40.2921687 C101.03369,-0.784665834 25.4485367,1.22762235 0,-2.27304133e-13" id="Stroke-18" stroke="#000000" stroke-width="29.7294464" stroke-linecap="round" stroke-linejoin="round"></path>
                    </g>
                    <g id="Group-22" transform="translate(90.099751, 251.880458) rotate(8.000000) translate(-90.099751, -251.880458) translate(23.851144, 202.035556)" stroke="#000000" stroke-linecap="round" stroke-linejoin="round" stroke-width="33.7049651">
                        <path d="M0,98.2707309 C21.1546903,98.7072798 42.3093806,99.1438287 63.4640709,99.5803776 C83.3715458,99.9914964 105.794771,99.7329578 119.668709,89.7982919 C130.275369,82.1989507 132.897719,70.776628 132.450001,60.1934963 C131.495935,37.6412963 116.252192,13.6692528 86.5748638,4.55682463 C60.9749702,-3.30105526 31.5268312,1.41621568 3.54443664,1.28906552" id="Stroke-20"></path>
                    </g>
                    <g id="Group-26" transform="translate(90.099751, 251.880458) rotate(8.000000) translate(-90.099751, -251.880458) translate(23.851144, 202.035556)">
                        <path d="M0,98.2707309 C21.1546903,98.7072798 42.3093806,99.1438287 63.4640709,99.5803776 C83.3715458,99.9914964 105.794771,99.7329578 119.668709,89.7982919 C130.275369,82.1989507 132.897719,70.776628 132.450001,60.1934963 C131.495935,37.6412963 116.252192,13.6692528 86.5748638,4.55682463 C60.9749702,-3.30105526 31.5268312,1.41621568 3.54443664,1.28906552" id="Fill-23" fill="#FFFFFF"></path>
                        <path d="M0,98.2707309 C21.1546903,98.7072798 42.3093806,99.1438287 63.4640709,99.5803776 C83.3715458,99.9914964 105.794771,99.7329578 119.668709,89.7982919 C130.275369,82.1989507 132.897719,70.776628 132.450001,60.1934963 C131.495935,37.6412963 116.252192,13.6692528 86.5748638,4.55682463 C60.9749702,-3.30105526 31.5268312,1.41621568 3.54443664,1.28906552" id="Stroke-25" stroke="#000000" stroke-width="29.7294464" stroke-linecap="round" stroke-linejoin="round"></path>
                    </g>
                </g>
            </g>
        </g>
    </g>
</svg>