<?xml version="1.0" encoding="UTF-8"?><svg id="Layer_2" xmlns="http://www.w3.org/2000/svg" viewBox="0 0 283.18 291.75"><defs><style>.cls-1{fill:#f68a91;}.cls-2{fill:#fdd83e;}.cls-3{fill:#fff;}.cls-4{fill:#c0b2ea;}.cls-5{fill:#e24188;}</style></defs><g id="Layer_1-2"><rect class="cls-2" x="4" y="206.29" width="275.18" height="81.46"/><rect class="cls-1" x="4" y="4" width="275.18" height="201.39"/><path d="m184,209.78c-.08,0-.17,0-.25,0-2.21-.13-3.88-2.03-3.75-4.24.04-.57.06-1.25.09-2.02.3-7.78,1-25.99,15.42-29.93,7.12-1.95,12.78-1.7,17.3.73,5.01,2.7,8.42,8.3,9.12,14.97.57,5.46-.62,10.79-1.67,15.49-.48,2.16-2.62,3.52-4.78,3.03-2.16-.48-3.51-2.62-3.03-4.78.96-4.3,1.96-8.75,1.52-12.91-.33-3.12-1.8-7.06-4.96-8.76-2.63-1.42-6.35-1.43-11.39-.06-7.7,2.1-9.13,12.07-9.54,22.52-.03.84-.06,1.58-.1,2.2-.13,2.12-1.89,3.75-3.99,3.75Z"/><path class="cls-3" d="m216.35,203.91c1.04-4.67,2.1-9.44,1.6-14.2-.5-4.76-2.82-9.59-7.04-11.86-4.31-2.32-9.62-1.69-14.35-.4-12.82,3.5-12.19,22.08-12.57,28.34"/><path d="m184,209.78c-.08,0-.17,0-.25,0-2.21-.13-3.88-2.03-3.75-4.24.04-.57.06-1.25.09-2.02.3-7.78,1-25.99,15.42-29.93,7.12-1.95,12.78-1.7,17.3.73,5.01,2.7,8.42,8.3,9.12,14.97.57,5.46-.62,10.79-1.67,15.49-.48,2.16-2.62,3.52-4.78,3.03-2.16-.48-3.51-2.62-3.03-4.78.96-4.3,1.96-8.75,1.52-12.91-.33-3.12-1.8-7.06-4.96-8.76-2.63-1.42-6.35-1.43-11.39-.06-7.7,2.1-9.13,12.07-9.54,22.52-.03.84-.06,1.58-.1,2.2-.13,2.12-1.89,3.75-3.99,3.75Z"/><path d="m244.85,207.45s-.07,0-.11,0c-2.21-.06-3.95-1.89-3.89-4.1l.41-15.68c.11-4.17.05-8.81-2.01-11.1-1.18-1.31-3.24-1.94-6.09-1.83-4.81.16-11.28,2.55-13.68,8.77-1.45,3.76-1.21,8.26-.95,13.03.11,1.98.22,4.02.21,6.06-.01,2.2-1.8,3.98-4,3.98h-.02c-2.21-.01-3.99-1.81-3.98-4.02.01-1.8-.09-3.64-.19-5.58-.29-5.4-.59-10.98,1.48-16.34,3.13-8.12,11.33-13.57,20.88-13.89,6.63-.21,10.35,2.31,12.3,4.48,4.03,4.48,4.21,10.95,4.07,16.66l-.41,15.67c-.06,2.17-1.84,3.9-4,3.9Z"/><path class="cls-3" d="m244.85,203.45c.14-5.23.27-10.45.41-15.68.13-4.92.05-10.46-3.04-13.88-2.36-2.62-5.91-3.27-9.2-3.16-7,.24-14.45,4-17.28,11.33-2.44,6.32-.98,13.6-1.02,20.51"/><path d="m244.85,207.45s-.07,0-.11,0c-2.21-.06-3.95-1.89-3.89-4.1l.41-15.68c.11-4.17.05-8.81-2.01-11.1-1.18-1.31-3.24-1.94-6.09-1.83-4.81.16-11.28,2.55-13.68,8.77-1.45,3.76-1.21,8.26-.95,13.03.11,1.98.22,4.02.21,6.06-.01,2.2-1.8,3.98-4,3.98h-.02c-2.21-.01-3.99-1.81-3.98-4.02.01-1.8-.09-3.64-.19-5.58-.29-5.4-.59-10.98,1.48-16.34,3.13-8.12,11.33-13.57,20.88-13.89,6.63-.21,10.35,2.31,12.3,4.48,4.03,4.48,4.21,10.95,4.07,16.66l-.41,15.67c-.06,2.17-1.84,3.9-4,3.9Z"/><path d="m243.05,207.82c-2.11,0-3.88-1.65-3.99-3.79-.4-7.48-.51-17.18,2.23-25.96,2.82-9.05,11.52-16.95,19.39-17.62,2.2-.19,4.14,1.45,4.32,3.65.19,2.2-1.45,4.14-3.65,4.32-4.12.35-10.45,5.68-12.43,12.03-2.36,7.56-2.24,16.34-1.88,23.15.12,2.21-1.58,4.09-3.78,4.21-.07,0-.14,0-.22,0Z"/><path class="cls-3" d="m279.18,202.66c-1.62-12.78,1.55-39.89-18.17-38.22-6.03.51-13.53,7.18-15.91,14.82-2.38,7.64-2.5,16.26-2.06,24.55"/><path d="m243.05,207.82c-2.11,0-3.88-1.65-3.99-3.79-.4-7.48-.51-17.18,2.23-25.96,2.82-9.05,11.52-16.95,19.39-17.62,5.36-.46,9.84.85,13.3,3.88,7.5,6.57,8.12,19.49,8.62,29.88.14,2.95.28,5.74.56,7.94.28,2.19-1.27,4.19-3.46,4.47-2.19.29-4.19-1.27-4.47-3.46-.32-2.51-.46-5.45-.61-8.56-.43-8.87-.96-19.91-5.9-24.24-1.79-1.57-4.19-2.2-7.35-1.93-4.12.35-10.45,5.68-12.43,12.03-2.36,7.56-2.24,16.34-1.88,23.15.12,2.21-1.58,4.09-3.78,4.21-.07,0-.14,0-.22,0Z"/><path class="cls-4" d="m4,130.58c60.2,17.14,82.28,61.59,82.84,75.72H5.97l-1.97-75.72Z"/><path d="m37.91,192.2c-.21,0-.42-.02-.63-.05-2.18-.34-3.67-2.39-3.33-4.57.79-5.03,3.2-9.8,6.77-13.43,1.55-1.57,4.08-1.59,5.66-.04,1.57,1.55,1.59,4.08.04,5.66-2.41,2.45-4.03,5.66-4.57,9.05-.31,1.97-2.01,3.38-3.95,3.38Z"/><path d="m22.83,180.61c-.29,0-.59-.03-.89-.1-2.15-.49-3.5-2.64-3.01-4.79,1.41-6.18,4.73-11.98,9.34-16.33,1.61-1.52,4.14-1.44,5.65.17,1.52,1.61,1.44,4.14-.17,5.65-3.47,3.27-5.97,7.64-7.03,12.29-.42,1.85-2.07,3.11-3.9,3.11Z"/><path d="m86.83,210.29c-2.14,0-3.91-1.69-3.99-3.84-.23-5.71-5.23-19.54-18.07-34.25-10.68-12.24-30.09-28.72-61.86-37.77-2.12-.61-3.36-2.82-2.75-4.94.6-2.12,2.82-3.36,4.94-2.75,33.66,9.59,54.3,27.16,65.7,40.21,13.38,15.32,19.7,30.73,20.04,39.2.09,2.21-1.63,4.07-3.84,4.16-.05,0-.11,0-.16,0Z"/><path d="m283.18,291.75H0V0h283.18v291.75Zm-275.18-8h267.18V8H8v275.75Z"/><path class="cls-5" d="m275.31,81.41c-5.04,6.39-34.65,23.62-63.66,23.82-17.1.12-36.23-2.79-47.4,13.65-6.8,10.01-2.87,24.7,6.18,32.72,9.05,8.02,21.99,10.38,34.04,9.3,12.05-1.08,23.58-5.19,35.16-8.71,11.58-3.52,23.64-6.49,35.67-5.19"/><path d="m198.91,165.16c-12.45,0-23.35-3.67-31.13-10.56-9.8-8.68-15.19-25.67-6.84-37.97,10.87-16,28.35-15.72,43.76-15.46,2.29.04,4.65.08,6.91.06,28.59-.2,60.56-19.04,64.42-23.92,1.37-1.73,3.89-2.03,5.62-.66,1.73,1.37,2.03,3.88.66,5.62-6.06,7.68-40.79,26.75-70.64,26.97-2.36.01-4.77-.02-7.1-.06-14.69-.24-28.57-.47-37.01,11.96-5.73,8.43-1.77,21.02,5.53,27.48,9.89,8.76,23.69,8.97,31.04,8.31,9.69-.87,19.38-3.89,28.75-6.82,1.87-.58,3.73-1.17,5.6-1.73,11.81-3.59,24.5-6.72,37.26-5.33,2.2.24,3.78,2.21,3.55,4.41s-2.21,3.79-4.41,3.55c-11.34-1.22-23.08,1.7-34.07,5.04-1.85.56-3.7,1.14-5.54,1.72-9.77,3.05-19.88,6.21-30.42,7.15-2.01.18-3.99.27-5.92.27Z"/><path d="m208.39,137.05c-6.59,0-13.37-1.04-20.23-3.6-2.07-.77-3.12-3.08-2.35-5.15.77-2.07,3.08-3.12,5.15-2.35,21.34,7.97,42.12-1.05,58.81-8.31,10.61-4.61,19-8.25,25.95-7.1,2.18.36,3.65,2.42,3.3,4.6-.36,2.18-2.41,3.65-4.6,3.3-4.63-.76-12.81,2.79-21.46,6.55-12.26,5.32-27.77,12.06-44.56,12.06Z"/><path d="m227.01,52.87c-1.32,0-2.62-.66-3.38-1.85-6.33-9.96-4.66-18.16,5.28-25.8-.1-1.2-1.79-4.03-2.72-5.59-.53-.88-1.07-1.79-1.54-2.67-1.05-1.95-.32-4.37,1.63-5.42s4.37-.32,5.42,1.63c.4.75.88,1.54,1.36,2.35,2.55,4.26,6.81,11.4.85,15.94-6.74,5.14-7.6,8.85-3.52,15.26,1.19,1.86.64,4.34-1.23,5.52-.67.42-1.41.63-2.14.63Z"/><path d="m212.34,90.52c-.43,0-.86-.07-1.28-.21-2.09-.71-3.21-2.98-2.51-5.07.62-1.83.54-4.14-.23-6.51-.83-2.56-2.37-5.04-3.76-7.13l-.38-.56c-1.44-2.15-3.08-4.58-3.83-7.57-1.52-6.07,1.33-12.72,6.78-15.8,1.92-1.09,4.36-.41,5.45,1.51,1.09,1.92.41,4.36-1.51,5.45-2.3,1.3-3.6,4.33-2.96,6.9.41,1.63,1.52,3.29,2.7,5.05l.39.58c1.7,2.54,3.59,5.62,4.72,9.11,1.31,4.06,1.38,8.05.2,11.54-.56,1.67-2.12,2.72-3.79,2.72Z"/><path d="m239.57,86.21c-1.38,0-2.72-.71-3.46-1.99-4.13-7.11-1.92-10.87.93-14.41,1.79-2.23,3.34-4.15,2.42-9.6-.37-2.18,1.1-4.24,3.28-4.61,2.18-.37,4.24,1.1,4.61,3.28,1.52,9-1.85,13.18-4.08,15.95-1.77,2.2-1.96,2.43-.25,5.38,1.11,1.91.46,4.36-1.45,5.47-.63.37-1.32.54-2.01.54Z"/><rect x="4" y="202.29" width="275.18" height="8"/><path class="cls-3" d="m45.93,60.86c14.27-6.21,31.65-6.13,47.3,3.79,18.45,11.69,37.19,11.8,43.91,38.45,2.65,10.51-4.06,37.17-26.94,39.28-5.08.47-21.94.23-43.07-7.6-52.05-19.27-35.39-57.67-34.64-59.66,2.36-6.27,7.31-11.52,13.42-14.26"/><circle class="cls-2" cx="102.86" cy="109.76" r="15.8" transform="translate(-7.31 7.34) rotate(-3.94)"/><path d="m141.19,80.22c-1.07,0-2.14-.43-2.92-1.27-1.51-1.61-1.42-4.15.19-5.65,1.74-1.62,3.4-3.39,5.17-5.26,1.81-1.92,3.68-3.9,5.82-5.95,1.6-1.52,4.13-1.47,5.66.13,1.52,1.6,1.46,4.13-.13,5.66-1.99,1.9-3.78,3.8-5.52,5.65-1.85,1.97-3.6,3.83-5.53,5.63-.77.72-1.75,1.08-2.73,1.08Z"/><path d="m127.97,64.7c-.61,0-1.24-.14-1.82-.44-1.97-1.01-2.75-3.42-1.74-5.38,4.22-8.25,10.32-15.61,17.64-21.3,1.74-1.35,4.26-1.04,5.61.7s1.04,4.26-.7,5.61c-6.4,4.97-11.73,11.41-15.42,18.62-.71,1.38-2.11,2.18-3.56,2.18Z"/><path d="m104.89,61.64c-.74,0-1.48-.2-2.15-.63-1.86-1.19-2.41-3.66-1.22-5.52,4.48-7.02,9.64-13.67,15.34-19.75,1.51-1.61,4.04-1.7,5.65-.19s1.7,4.04.19,5.65c-5.36,5.72-10.21,11.98-14.43,18.59-.76,1.2-2.06,1.85-3.38,1.85Z"/><path d="m88.23,49.37c-.66,0-1.32-.16-1.94-.5-1.93-1.07-2.63-3.51-1.56-5.44,2.64-4.76,5.65-9.38,8.93-13.72,1.33-1.76,3.84-2.11,5.6-.78,1.76,1.33,2.11,3.84.78,5.6-3.06,4.04-5.86,8.34-8.32,12.77-.73,1.32-2.1,2.06-3.5,2.06Z"/><path d="m67.61,45.17c-.35,0-.7-.05-1.06-.14-2.13-.58-3.39-2.78-2.81-4.91,2.45-8.99,6.29-17.49,11.42-25.26,1.21-1.85,3.7-2.35,5.54-1.14,1.84,1.22,2.35,3.7,1.14,5.54-4.66,7.07-8.15,14.8-10.38,22.97-.49,1.78-2.1,2.95-3.86,2.95Z"/><path d="m50.75,45.2c-2.09,0-3.85-1.63-3.99-3.75-.33-5.27-.93-10.59-1.76-15.8-.35-2.18,1.14-4.23,3.32-4.58,2.18-.35,4.23,1.14,4.58,3.32.87,5.46,1.49,11.03,1.84,16.55.14,2.21-1.53,4.11-3.74,4.25-.09,0-.17,0-.26,0Z"/><path d="m106.33,146.52c-8.56,0-23.5-1.68-40.57-8-18.6-6.89-30.96-16.95-36.75-29.92-6.72-15.06-2.45-29.32-.3-34.76l.06-.15c2.75-7.29,8.41-13.31,15.53-16.49.08-.04.16-.07.24-.1,15.51-5.75,39.84-1.95,61.98,9.7,18.76,9.87,31.34,22.74,34.51,35.32,1.84,7.28-.07,20.47-7.21,30.56-5.71,8.07-13.75,12.8-23.23,13.67-1.15.11-2.58.17-4.25.17Zm-58.88-81.96c-5.06,2.3-9.23,6.77-11.2,11.96l-.1.27c-1.78,4.49-5.32,16.27.17,28.55,4.88,10.93,15.72,19.57,32.22,25.68,19.1,7.07,35.38,7.91,41.31,7.36,7.19-.66,13.05-4.14,17.44-10.33,6.05-8.55,7.15-19.37,5.99-23.98-2.58-10.22-13.97-21.51-30.48-30.19-20.15-10.6-41.85-14.25-55.34-9.32Z"/><path d="m162.61,226.31c-1.06-.04-2.14.14-3.19.6-1.53.68-3.39,3.51-4.11,6.27-1.36,5.2-5.59,26.77-5.8,29.59-.32,4.26.43,6.49,2.51,7.42.77.35,1.88.52,2.47.37,3.13-.76,6.55-3.67,8.11-6.9.56-1.16,1.93-5.88,4.2-7.58,2.67-2.01,7.09-4.18,9.67-2.05,2.19,1.81.34,7.76.27,8.75-.32,4.26.43,6.49,2.5,7.42.77.35,1.88.52,2.47.37,3.14-.76,6.56-3.67,8.12-6.9,1.86-3.84,7.13-28.94,6.65-31.65-.78-4.4-5.66-6.93-9.83-5.08-1.53.68-3.39,3.51-4.12,6.27-.34,1.31-2.29,5.27-4.54,6.63-2.02,1.22-5.04,2.1-6.96.72-2.6-1.86-2.05-5.64-2.54-9.5-.43-3.33-2.7-4.58-5.87-4.72Z"/><path d="m22.74,269.38c-3.91-1.77-4.16-6.51-.37-23.33,1.72-7.63,3.52-13.24,4.99-14.71,3.47-5.53,9.08-6.99,13.33.38,1.98,2.82,6.06,12.86,7.99,13.08,3.67.43,5.57-11.05,10.33-14.86,6.02-4.97,9.7,2.35,8.92,9.23-.5,4.21-1.35,8.73-2.32,12.37-1.61,6.03-3.71,12.61-4.62,14.49-4.65,7.06-10.46,3.96-11.66.08-2.21-5.59-9.8-15-14.05-12.54-5.85,2.38-4.51,19.1-12.53,15.81Z"/><path d="m121.24,269.89c-4.47-.72-8.09-3.54-8.67-6.76-.55-3.07,1.45-4.81,7.22-6.32,4.18-1.09,5.49-2.1,5.49-4.23,0-1.13-.47-1.99-2.13-3.9-3.81-4.39-4.55-7.65-2.69-11.83,2.08-4.67,6.17-7.96,11.78-9.49,3.1-.84,5.69-.83,8.54.03,4.79,1.46,7.08,3.66,7.08,6.82,0,2.87-2.06,4.25-6.33,4.26-1.86,0-2.45.43-2.45,1.78,0,.22.92,1.45,2.04,2.75,1.13,1.3,2.59,3.31,3.24,4.47,1.06,1.88,1.19,2.53,1.19,5.82,0,4.64-.94,6.97-4.07,10.16-4.89,4.98-13.06,7.57-20.24,6.42Z"/><path d="m109.59,235.84c5.67,9.19,1.85,22.28-8.53,29.25-10.38,6.96-23.39,5.17-29.06-4.02-5.67-9.18-1.85-22.28,8.53-29.24,10.38-6.97,23.39-5.17,29.06,4.02Z"/><path d="m212.2,225.89c-1.06-.04-2.14.14-3.19.6-1.53.68-3.39,3.51-4.11,6.27-1.36,5.2-5.58,26.77-5.79,29.59-.32,4.23.43,6.45,2.46,7.4,1.1.68,2.69,1.08,4.89,1.23,2.7.19,12.82-.13,17.94-.78,2.72-.35,5.67-1.85,6.54-3.34,2.35-4.04.67-9.44-3.39-10.89-1.63-.58-13.06,3.91-14.75-.22-2.32-1.96,5.72-17.14,5.18-24.41-.25-3.35-2.61-5.32-5.78-5.46Z"/><path d="m232.01,225.31c-1.63.03-3.38.89-5.02,3.3-4.45,9.06,15.96,17.6,15.56,23.03,1.07,2.06-6.45,10.26-7.02,11.46-1.2,3.12-2.25,7.66,1.78,8.36,2.98.44,6.13.22,11.79-6.35,5.93-7.44,6.8-9.08,12.52-20.81,5-11.3,2.56-17.96-.92-18.16-5.8-.5-6.39,8.14-10.73,11.12-5.33,2.16-8.14-3.61-12.09-8.72-.82-1.06-3.18-3.29-5.89-3.23Z"/><path d="m102.9,129.56c-1.32,0-2.64-.13-3.96-.4-5.19-1.05-9.65-4.05-12.58-8.46s-3.96-9.69-2.91-14.87,4.05-9.65,8.46-12.58c4.41-2.93,9.69-3.96,14.87-2.91,5.18,1.05,9.65,4.05,12.58,8.46s3.96,9.69,2.91,14.87h0c-1.05,5.18-4.05,9.65-8.46,12.58-3.28,2.18-7.06,3.31-10.91,3.31Zm-.07-31.62c-2.3,0-4.55.67-6.5,1.97-2.63,1.74-4.42,4.41-5.04,7.5-.62,3.09,0,6.24,1.74,8.87s4.41,4.42,7.5,5.04c3.09.63,6.24,0,8.86-1.74,2.63-1.74,4.42-4.41,5.04-7.5h0c.62-3.09,0-6.24-1.74-8.86s-4.41-4.42-7.5-5.04c-.79-.16-1.58-.24-2.36-.24Z"/></g></svg>