<?xml version="1.0" encoding="UTF-8"?>
<svg width="199px" height="63px" viewBox="0 0 199 63" version="1.1" xmlns="http://www.w3.org/2000/svg" xmlns:xlink="http://www.w3.org/1999/xlink">
    <title>Group 11</title>
    <g id="Design" stroke="none" stroke-width="1" fill="none" fill-rule="evenodd">
        <g id="Home_R1" transform="translate(-39.000000, -38.000000)">
            <g id="Above-Fold" transform="translate(-812.000000, 37.000000)">
                <g id="Nav" transform="translate(854.000000, 0.000000)">
                    <g id="Group-11" transform="translate(0.000000, 4.000000)">
                        <polygon id="Fill-1" fill="#FDD83E" points="0 57 193 57 193 0 0 0"></polygon>
                        <g id="Group-10">
                            <polygon id="Stroke-2" stroke="#000000" stroke-width="6" points="0 57 193 57 193 0 0 0"></polygon>
                            <path d="M111.240605,14.0072577 C110.499268,13.9764689 109.736189,14.1073216 109.005373,14.4285055 C107.929488,14.9008348 106.625662,16.8818189 106.120683,18.8138206 C105.166133,22.4511061 102.202891,37.5460507 102.055606,39.5158388 C101.833976,42.4967615 102.359996,44.0536988 103.813212,44.7079624 C104.354661,44.9514744 105.134572,45.0690319 105.545569,44.9668688 C107.74433,44.4329618 110.140874,42.3966977 111.236397,40.1365145 C111.63056,39.3248079 112.587214,36.0248005 114.178598,34.8310319 C116.051227,33.4273392 119.151234,31.9039898 120.960039,33.3944511 C122.498821,34.6602936 121.199203,38.82099 121.148003,39.5158388 C120.92427,42.4967615 121.450289,44.0536988 122.903505,44.7079624 C123.444253,44.9514744 124.224165,45.0690319 124.635862,44.9668688 C126.836727,44.4329618 129.233271,42.3966977 130.328794,40.1365145 C131.630517,37.4459869 135.328783,19.8823345 134.992131,17.9860198 C134.44437,14.9078323 131.021036,13.1402711 128.097771,14.4285055 C127.021886,14.9008348 125.718059,16.8818189 125.210977,18.8138206 C124.971813,19.7269906 123.606267,22.5042869 122.025404,23.4552432 C120.608658,24.3096344 118.491255,24.9219131 117.142542,23.9611604 C115.316202,22.66173 115.706158,20.0131872 115.358985,17.3121633 C115.060908,14.9834049 113.46251,14.1045226 111.240605,14.0072577" id="Fill-4" fill="#000000"></path>
                            <path d="M13.1426982,44.1420769 C10.4024882,42.9042243 10.2257457,39.584624 12.882494,27.8134781 C14.0860262,22.4772067 15.3477713,18.5516254 16.3850814,17.5201981 C18.8180962,13.6477976 22.751318,12.6275664 25.7320943,17.7868018 C27.1235907,19.7579894 29.9830318,26.7848499 31.3331481,26.942293 C33.9092401,27.2417847 35.2383156,19.2079882 38.5809932,16.5468499 C42.8024737,13.0691068 45.3841765,18.1926551 44.8371164,23.0055157 C44.4857355,25.9507513 43.8888789,29.1136082 43.2071579,31.659988 C42.0772683,35.8759643 40.607921,40.4803003 39.9682815,41.7979241 C36.7062603,46.7346399 32.6327666,44.5654239 31.7890315,41.8511049 C30.2362225,37.9388188 24.9185177,31.355598 21.9335333,33.0790751 C17.8291798,34.742374 18.769001,46.4463441 13.1426982,44.1420769" id="Fill-5" fill="#000000"></path>
                            <path d="M82.2263602,44.5058754 C79.0919863,44.0048565 76.5544691,42.0308699 76.1476808,39.7769845 C75.7619333,37.6301603 77.1625474,36.4084019 81.214299,35.3524835 C84.1459801,34.5876599 85.0661632,33.8795158 85.0661632,32.3939527 C85.0661632,31.6067372 84.7379272,31.0028555 83.5708656,29.6614403 C80.8965833,26.5895504 80.3768762,24.3069754 81.6828069,21.3862309 C83.1444393,18.1191117 86.0122967,15.8148445 89.9434145,14.7477301 C92.1190305,14.1578433 93.9362519,14.16694 95.9323199,14.7722213 C99.2946355,15.7952515 100.89654,17.3339954 100.89654,19.5451963 C100.89654,21.5506715 99.4503372,22.5219205 96.4569366,22.526119 C95.1545127,22.5282182 94.7414122,22.82771 94.7414122,23.7702693 C94.7414122,23.9214147 95.3866625,24.7884014 96.1749902,25.6980726 C96.9654219,26.6049449 97.9887048,28.0135358 98.4487964,28.8273417 C99.190133,30.1449655 99.2841151,30.5970021 99.282011,32.9019691 C99.2771015,36.1466965 98.6213308,37.7813057 96.424674,40.0120995 C92.9922225,43.4989393 87.2670281,45.3105846 82.2263602,44.5058754" id="Fill-6" fill="#000000"></path>
                            <path d="M74.0574904,20.6764774 C78.0334952,27.1036546 75.3550047,36.2661433 68.0755985,41.1412814 C60.7947896,46.0143203 51.6715103,44.756175 47.6934014,38.3289978 C43.718098,31.9039198 46.3958871,22.7414312 53.676696,17.8662931 C60.9568035,12.991155 70.0821869,14.2513995 74.0574904,20.6764774" id="Fill-7" fill="#000000"></path>
                            <path d="M146.022265,13.7122443 C145.280929,13.6814555 144.51785,13.8123082 143.787034,14.1334921 C142.711149,14.6058214 141.409427,16.5868055 140.902344,18.5181075 C139.947794,22.1560927 136.986656,37.2510373 136.839371,39.2208255 C136.617741,42.1814555 137.137448,43.7362936 138.567519,44.3968548 C139.336209,44.8761816 140.450669,45.1511822 141.995763,45.259643 C143.889432,45.3953939 150.984381,45.1714749 154.578847,44.7166392 C156.487946,44.4745267 158.558358,43.4214074 159.163631,42.3808834 C160.812526,39.5553046 159.630035,35.7738712 156.78392,34.7627366 C155.644211,34.3589825 147.622066,37.4973483 146.441678,34.6115912 C144.816629,33.2386874 150.454154,22.6151268 150.074718,17.5314641 C149.90008,15.1894105 148.244171,13.8095092 146.022265,13.7122443" id="Fill-8" fill="#000000"></path>
                            <path d="M159.915769,13.3086302 C158.773956,13.3331214 157.542369,13.9293059 156.398453,15.6198949 C153.276703,21.9582042 167.592144,27.938243 167.313003,31.7329716 C168.062756,33.1723514 162.792042,38.9144762 162.391566,39.7527732 C161.549935,41.9352844 160.810703,45.1114366 163.639985,45.6012595 C165.730036,45.909848 167.937213,45.7524049 171.911113,41.1613641 C176.067368,35.9580446 176.678953,34.8090599 180.695636,26.5982273 C184.200328,18.6917847 182.491116,14.0335682 180.049685,13.8922193 C175.980399,13.541646 175.567298,19.5895603 172.524803,21.6748066 C168.783052,23.1897591 166.814337,19.1459206 164.046774,15.5709126 C163.471659,14.8256819 161.818556,13.2708439 159.915769,13.3086302" id="Fill-9" fill="#000000"></path>
                        </g>
                    </g>
                </g>
            </g>
        </g>
    </g>
</svg>