<?xml version="1.0" encoding="utf-8"?>
<!-- Generator: Adobe Illustrator 27.4.1, SVG Export Plug-In . SVG Version: 6.00 Build 0)  -->
<svg version="1.1" id="Layer_2_00000082370503553497390020000015918763672727859086_"
	 xmlns="http://www.w3.org/2000/svg" xmlns:xlink="http://www.w3.org/1999/xlink" x="0px" y="0px" viewBox="0 0 5564.6 274.9"
	 style="enable-background:new 0 0 5564.6 274.9;" xml:space="preserve">
<style type="text/css">
	.st0{fill:#FFFDF7;}
</style>
<path class="st0" d="M-2.9,0.4v273.8h5566.7V0.4H-2.9z M284.7,85.2c-2.8,23.7-7.6,49.1-13.1,69.5c-9.1,33.9-20.8,70.9-26,81.5
	c-26.1,39.7-58.8,22.3-65.6,0.4c-12.4-31.4-55.1-84.3-79-70.5c-32.9,13.5-25.3,107.6-70.4,89.1c-22-9.9-23.4-36.6-2.1-131.2
	c9.6-43,19.8-74.5,28.1-82.8c19.5-31.1,51-39.3,74.9,2.1c11.2,15.8,34.1,72.3,44.9,73.6c20.7,2.4,31.3-62.2,58.1-83.6
	C268.4,5.4,289,46.5,284.7,85.2z M471,231.1c-58.4,39.2-131.5,29.1-163.4-22.6c-31.9-51.6-10.4-125.3,48-164.4
	C414,5,487.1,14.9,519,66.6C550.9,118.3,529.4,191.9,471,231.1z M698.5,81.5c-10.5,0-13.8,2.4-13.8,10c0,1.2,5.2,8.2,11.5,15.5
	c6.3,7.3,14.5,18.6,18.2,25.1c6,10.6,6.7,14.2,6.7,32.8c0,26.1-5.3,39.2-22.9,57.1c-27.3,28-73.2,42.6-113.7,36.1
	c-25.1-4-45.5-19.9-48.8-38c-3.1-17.2,8.2-27.1,40.6-35.6c23.5-6.2,30.9-11.8,30.9-23.8c0-6.3-2.6-11.2-12-22
	c-21.5-24.7-25.6-43-15.1-66.5c11.7-26.2,34.7-44.8,66.2-53.3c17.5-4.7,32-4.7,48,0.2c27,8.2,39.8,20.6,39.8,38.4
	C734.1,73.6,722.5,81.4,698.5,81.5z M970.3,223.1c-8.7,18.1-27.9,34.5-45.6,38.8c-3.3,0.8-9.6-0.1-13.9-2.1
	c-11.7-5.2-15.9-17.8-14.1-41.7c0.4-5.6,10.8-39-1.5-49.2c-14.5-12.1-39.4,0.2-54.4,11.5c-12.8,9.5-20.4,36.1-23.6,42.6
	c-8.8,18.1-28,34.5-45.6,38.8c-3.3,0.8-9.6-0.1-13.9-2.1c-11.7-5.2-15.9-17.8-14.1-41.7c1.2-15.9,24.9-137.2,32.6-166.4
	c4-15.5,14.5-31.4,23.1-35.2c5.8-2.6,11.9-3.6,17.9-3.4c17.8,0.7,30.6,7.8,33.1,26.4c2.8,21.8-0.4,43.1,14.3,53.5
	c10.8,7.7,27.7,2.8,39.1-4.1c12.6-7.6,23.6-30,25.5-37.3c4-15.5,14.5-31.4,23.1-35.2c23.4-10.3,50.9,3.9,55.4,28.8
	C1010.4,60.3,980.8,201.5,970.3,223.1z M1201.6,240.9c-4.9,8.4-21.5,16.9-36.8,18.8c-28.8,3.7-85.7,5.5-100.9,4.4
	c-12.4-0.8-21.3-3-27.5-6.9c-11.5-5.3-15.7-17.8-13.9-41.6c1.2-15.9,24.9-137.2,32.6-166.4c4-15.5,14.5-31.4,23.1-35.2
	c5.8-2.6,12-3.6,17.9-3.4c17.8,0.8,31.1,11.9,32.6,30.6c3.1,40.9-42.1,126.3-29.1,137.3c9.5,23.2,73.8-2,82.9,1.2
	C1205.4,187.8,1214.8,218.2,1201.6,240.9z M1374,114c-32.2,66-37.1,75.3-70.4,117.1c-31.8,36.9-49.5,38.2-66.3,35.7
	c-22.7-3.9-16.7-29.5-10-47c3.2-6.7,45.5-52.8,39.5-64.4c2.3-30.5-112.5-78.6-87.5-129.5c9.1-13.6,19-18.4,28.2-18.6
	c15.2-0.3,28.5,12.2,33,18.1c22.2,28.7,38,61.2,68,49c24.4-16.7,27.6-65.3,60.3-62.5C1388.4,13,1402.1,50.5,1374,114z M1679.4,85.3
	c-2.8,23.7-7.6,49.1-13.1,69.5c-9.1,33.9-20.8,70.9-26,81.5c-26.2,39.7-58.8,22.3-65.6,0.4c-12.4-31.4-55.1-84.3-79-70.5
	c-32.9,13.4-25.3,107.5-70.4,89c-22-9.9-23.4-36.6-2.1-131.2c9.6-42.9,19.8-74.4,28.1-82.7c19.5-31.1,51.1-39.3,74.9,2.1
	c11.2,15.8,34.1,72.3,44.9,73.6c20.7,2.4,31.3-62.2,58.1-83.6C1663.1,5.5,1683.7,46.6,1679.4,85.3z M1865.7,231.1
	c-58.4,39.2-131.5,29.1-163.4-22.6c-31.9-51.6-10.4-125.3,48-164.4s131.5-29.2,163.4,22.5C1945.6,118.3,1924.1,191.9,1865.7,231.1z
	 M2093.2,81.5c-10.4,0-13.8,2.4-13.8,10c0,1.2,5.2,8.2,11.5,15.5c6.3,7.3,14.6,18.6,18.2,25.1c5.9,10.6,6.7,14.2,6.7,32.8
	c0,26.1-5.3,39.2-22.9,57.1c-27.3,28-73.2,42.6-113.7,36.1c-25.1-4-45.5-19.9-48.8-38c-3.1-17.2,8.2-27.1,40.6-35.6
	c23.5-6.2,30.9-11.8,30.9-23.8c0-6.3-2.6-11.2-12-22c-21.4-24.7-25.6-43-15.1-66.5c11.7-26.2,34.7-44.8,66.2-53.3
	c17.5-4.7,32-4.7,48,0.2c27,8.2,39.8,20.6,39.8,38.4C2128.8,73.6,2117.2,81.4,2093.2,81.5z M2365,223.1
	c-8.7,18.1-27.9,34.5-45.6,38.8c-3.3,0.8-9.6-0.1-13.9-2.1c-11.7-5.2-15.9-17.8-14.1-41.7c0.4-5.6,10.9-39-1.5-49.2
	c-14.5-12.1-39.4,0.2-54.4,11.5c-12.8,9.5-20.5,36.1-23.6,42.6c-8.8,18.1-28,34.5-45.6,38.8c-3.3,0.8-9.6-0.1-13.9-2.1
	c-11.7-5.2-15.9-17.8-14.1-41.7c1.2-15.9,25-137.2,32.6-166.4c4-15.5,14.5-31.4,23.1-35.2c5.8-2.6,12-3.6,17.9-3.4
	c17.8,0.7,30.5,7.8,33.2,26.6c2.8,21.8-0.3,43.1,14.3,53.5c10.7,7.7,27.7,2.8,39.1-4.1c12.6-7.6,23.6-30,25.5-37.3
	c4-15.5,14.5-31.4,23.1-35.2c23.5-10.3,50.9,3.9,55.3,28.6C2405.1,60.3,2375.4,201.5,2365,223.1z M2596.2,240.9
	c-4.9,8.4-21.5,16.9-36.8,18.8c-28.8,3.7-85.7,5.5-100.9,4.4c-12.4-0.8-21.3-3-27.5-6.9c-11.5-5.3-15.7-17.8-13.9-41.6
	c1.2-15.9,25-137.2,32.6-166.4c4-15.5,14.5-31.4,23.1-35.2c5.8-2.6,12-3.6,17.9-3.4c17.9,0.8,31.2,11.9,32.6,30.6
	c3.1,40.9-42.1,126.3-29.1,137.3c9.5,23.2,73.8-2,82.9,1.2C2600,187.8,2609.4,218.2,2596.2,240.9z M2768.7,114
	c-32.2,66-37.1,75.3-70.4,117.1c-31.8,36.9-49.5,38.2-66.3,35.7c-22.7-3.9-16.7-29.5-10-47c3.2-6.7,45.5-52.8,39.5-64.4
	c2.3-30.5-112.5-78.6-87.5-129.5c9.1-13.6,19-18.4,28.2-18.6c15.2-0.3,28.4,12.2,32.9,18.1c22.2,28.7,38,61.2,68,49
	c24.5-16.7,27.8-65.3,60.4-62.5C2783.1,13,2796.8,50.5,2768.7,114z M3056.1,85.3c-2.8,23.7-7.6,49.1-13.1,69.5
	c-9.1,33.9-20.8,70.9-26,81.5c-26.2,39.7-58.8,22.3-65.6,0.4c-12.4-31.4-55.1-84.3-79-70.5c-32.9,13.4-25.3,107.5-70.4,89
	c-22-9.9-23.4-36.6-2.1-131.2c9.6-42.9,19.8-74.4,28.1-82.7c19.5-31.1,51.1-39.3,74.9,2.1c11.2,15.8,34.1,72.3,44.9,73.6
	c20.7,2.4,31.3-62.2,58.1-83.6C3039.8,5.5,3060.4,46.6,3056.1,85.3z M3242.4,231.1c-58.4,39.2-131.5,29.1-163.4-22.6
	c-31.9-51.6-10.4-125.3,48-164.4s131.5-29.2,163.4,22.5S3300.8,191.9,3242.4,231.1z M3469.9,81.5c-10.4,0-13.8,2.4-13.8,10
	c0,1.2,5.2,8.2,11.5,15.5c6.3,7.3,14.6,18.6,18.2,25.1c6,10.6,6.7,14.2,6.7,32.8c0,26.1-5.3,39.2-22.9,57.1
	c-27.3,28-73.2,42.6-113.7,36.1c-25.1-4-45.5-19.9-48.8-38c-3.1-17.2,8.2-27.1,40.6-35.6c23.5-6.2,30.9-11.8,30.9-23.8
	c0-6.3-2.6-11.2-12-22c-21.4-24.7-25.6-43-15.1-66.5c11.7-26.2,34.7-44.8,66.2-53.3c17.5-4.7,32-4.7,48,0.2
	c27,8.2,39.8,20.6,39.8,38.4C3505.5,73.6,3493.9,81.4,3469.9,81.5z M3741.7,223.1c-8.7,18.1-27.9,34.5-45.6,38.8
	c-3.3,0.8-9.6-0.1-13.9-2.1c-11.7-5.2-15.9-17.8-14.1-41.7c0.4-5.6,10.9-39-1.5-49.2c-14.5-12.1-39.4,0.2-54.4,11.5
	c-12.8,9.5-20.5,36.1-23.6,42.6c-8.8,18.1-28,34.5-45.6,38.8c-3.3,0.8-9.6-0.1-13.9-2.1c-11.7-5.2-15.9-17.8-14.1-41.7
	c1.2-15.9,24.9-137.2,32.6-166.4c4-15.5,14.5-31.4,23.1-35.2c5.8-2.6,11.9-3.6,17.9-3.4c17.8,0.7,30.6,7.8,33.2,26.6
	c2.8,21.8-0.4,43.1,14.3,53.5c10.8,7.7,27.7,2.8,39.1-4.1c12.6-7.6,23.6-30,25.5-37.3c4-15.5,14.5-31.4,23.1-35.2
	c23.5-10.3,50.9,3.9,55.3,28.6C3781.8,60.3,3752.1,201.5,3741.7,223.1z M3973,240.9c-4.9,8.4-21.5,16.9-36.8,18.8
	c-28.8,3.7-85.7,5.5-100.9,4.4c-12.4-0.8-21.3-3-27.5-6.9c-11.5-5.3-15.7-17.8-13.9-41.6c1.2-15.9,25-137.2,32.6-166.4
	c4-15.5,14.5-31.4,23.1-35.2c5.8-2.6,12-3.6,17.9-3.4c17.8,0.8,31.1,11.9,32.6,30.6c3.1,40.9-42.1,126.3-29.1,137.3
	c9.5,23.2,73.8-2,82.9,1.2C3976.8,187.8,3986.2,218.2,3973,240.9z M4145.4,114c-32.2,66-37.1,75.3-70.4,117.1
	c-31.8,36.9-49.5,38.2-66.3,35.7c-22.7-3.9-16.7-29.5-10-47c3.2-6.7,45.5-52.8,39.5-64.4c2.3-30.5-112.5-78.6-87.5-129.5
	c9.1-13.6,19-18.4,28.2-18.6c15.2-0.3,28.5,12.2,33,18.1c22.2,28.7,38,61.2,68,49c24.4-16.7,27.7-65.3,60.3-62.5
	C4159.8,13,4173.5,50.5,4145.4,114z M4450.8,85.3c-2.8,23.7-7.6,49.1-13.1,69.5c-9.1,33.9-20.8,70.9-26,81.5
	c-26.2,39.7-58.8,22.3-65.6,0.4c-12.5-31.4-55.1-84.3-79-70.5c-32.9,13.4-25.3,107.5-70.4,89c-22-9.9-23.4-36.6-2.1-131.2
	c9.6-42.9,19.8-74.4,28.1-82.7c19.5-31.1,51.1-39.3,74.9,2.1c11.2,15.8,34.1,72.3,44.9,73.6c20.7,2.4,31.3-62.2,58.1-83.6
	C4434.5,5.5,4455.1,46.6,4450.8,85.3z M4637.1,231.1c-58.4,39.2-131.5,29.1-163.4-22.6c-31.9-51.6-10.4-125.3,48-164.4
	c58.4-39.3,131.5-29.2,163.4,22.5S4695.5,191.9,4637.1,231.1z M4864.6,81.5c-10.5,0-13.8,2.4-13.8,10c0,1.2,5.2,8.2,11.5,15.5
	c6.3,7.3,14.5,18.6,18.2,25.1c5.9,10.6,6.7,14.2,6.7,32.8c0,26.1-5.3,39.2-22.9,57.1c-27.3,28-73.2,42.6-113.7,36.1
	c-25.1-4-45.5-19.9-48.8-38c-3.1-17.2,8.1-27.1,40.6-35.6c23.5-6.2,30.9-11.8,30.9-23.8c0-6.3-2.6-11.2-12-22
	c-21.5-24.7-25.6-43-15.1-66.5c11.7-26.2,34.7-44.8,66.2-53.3c17.5-4.7,32-4.7,48,0.2c27,8.2,39.8,20.6,39.8,38.4
	C4900.2,73.6,4888.6,81.4,4864.6,81.5z M5136.3,223.1c-8.7,18.1-27.9,34.5-45.6,38.8c-3.3,0.8-9.6-0.1-13.9-2.1
	c-11.7-5.2-15.9-17.8-14.1-41.7c0.4-5.6,10.9-39-1.5-49.2c-14.5-12.1-39.4,0.2-54.4,11.5c-12.8,9.5-20.5,36.1-23.6,42.6
	c-8.8,18.1-28,34.5-45.6,38.8c-3.3,0.8-9.6-0.1-13.9-2.1c-11.7-5.2-15.9-17.8-14.1-41.7c1.2-15.9,25-137.2,32.6-166.4
	c4-15.5,14.5-31.4,23.1-35.2c5.8-2.6,12-3.6,17.9-3.4c17.8,0.7,30.6,7.8,33.2,26.6c2.8,21.8-0.3,43.1,14.3,53.5
	c10.7,7.7,27.7,2.8,39.1-4.1c12.6-7.6,23.6-30,25.5-37.3c4-15.5,14.5-31.4,23.1-35.2c23.5-10.3,50.9,3.9,55.3,28.6
	C5176.4,60.3,5146.8,201.5,5136.3,223.1z M5367.6,240.9c-4.9,8.4-21.5,16.9-36.8,18.8c-28.8,3.7-85.7,5.5-100.9,4.4
	c-12.4-0.8-21.3-3-27.5-6.9c-11.5-5.3-15.7-17.8-13.9-41.6c1.2-15.9,25-137.2,32.6-166.4c4-15.5,14.5-31.4,23.1-35.2
	c5.8-2.6,12-3.6,17.9-3.4c17.9,0.8,31.2,11.9,32.6,30.6c3.1,40.9-42.1,126.3-29.1,137.3c9.5,23.2,73.8-2,82.9,1.2
	C5371.4,187.8,5380.8,218.2,5367.6,240.9z M5540,114c-32.2,66-37.1,75.3-70.4,117.1c-31.8,36.9-49.5,38.2-66.3,35.7
	c-22.7-3.9-16.7-29.5-10-47c3.2-6.7,45.5-52.8,39.5-64.4c2.3-30.5-112.5-78.6-87.5-129.5c9.1-13.6,19-18.4,28.2-18.6
	c15.3-0.3,28.5,12.2,32.9,18.1c22.2,28.7,38,61.2,68,49c24.5-16.7,27.8-65.3,60.4-62.5C5554.4,13,5568.1,50.5,5540,114z"/>
</svg>
