<?xml version="1.0" encoding="utf-8"?>
<!-- Generator: Adobe Illustrator 27.4.1, SVG Export Plug-In . SVG Version: 6.00 Build 0)  -->
<svg version="1.1" id="Layer_1" xmlns="http://www.w3.org/2000/svg" xmlns:xlink="http://www.w3.org/1999/xlink" x="0px" y="0px"
	 viewBox="0 0 145.8 109.7" style="enable-background:new 0 0 145.8 109.7;" xml:space="preserve">
<style type="text/css">
	.st0{fill-rule:evenodd;clip-rule:evenodd;fill:#F3878E;}
	.st1{fill:none;stroke:#000000;stroke-width:8.0917;stroke-linecap:round;stroke-linejoin:round;}
</style>
<g id="Design">
	<g id="Home_R1" transform="translate(-1603.467142, -9175.453908)">
		<g id="Pre-footer" transform="translate(60.500000, 9147.500000)">
			<g id="Group-13" transform="translate(0.000000, 0.000000)">
				<g id="Group-7" transform="translate(1431.000000, -0.000000)">
					
						<g transform="translate(183.000000, 80.000000) rotate(-90.000000) translate(-183.000000, -80.000000) translate(135.000000, 13.000000)">
						<path id="Fill-1" class="st0" d="M91.2,136.7c-7.5-5.8-27.8-39.6-28.1-72.8C63,44.3,66.4,22.4,47.1,9.6
							C35.3,1.8,18,6.3,8.5,16.7s-12.2,25.2-11,39s6.1,27,10.3,40.2c4.1,13.2,7.6,27,6.1,40.8"/>
						<path id="Stroke-3" class="st1" d="M92.2,135.7c-7.6-5.8-29.3-41.8-29.6-74.9C62.5,41.2,66,19.4,46.5,6.6
							C34.6-1.1,17.1,3.3,7.6,13.7C-2,24-4.7,38.8-3.5,52.6S2.7,79.5,6.9,92.7c4.2,13.2,7.7,27,6.2,40.7"/>
						<path id="Stroke-5" class="st1" d="M34.5,36.2c-15.1,40.8,20,78.9,17,97"/>
					</g>
				</g>
			</g>
		</g>
	</g>
</g>
</svg>
